<?xml version="1.0" standalone="no"?>
<!DOCTYPE svg PUBLIC "-//W3C//DTD SVG 20010904//EN"
 "http://www.w3.org/TR/2001/REC-SVG-20010904/DTD/svg10.dtd">
<svg version="1.0" xmlns="http://www.w3.org/2000/svg"
 width="1361.000000pt" height="1101.000000pt" viewBox="0 0 1361.000000 1101.000000"
 preserveAspectRatio="xMidYMid meet">

<g transform="translate(0.000000,1101.000000) scale(0.100000,-0.100000)"
fill="#000000" stroke="none">
<path d="M0 8360 c0 -1457 2 -2650 3 -2650 10 0 564 205 772 285 740 287 1441
617 2045 963 332 190 565 403 802 732 92 128 274 403 428 648 185 295 505 772
650 972 296 407 499 634 736 822 135 108 195 170 325 334 49 62 98 115 108
119 26 8 49 -3 57 -27 38 -120 -246 -1259 -403 -1618 -98 -223 -115 -281 -121
-405 -3 -86 0 -140 18 -245 28 -166 24 -295 -15 -483 -107 -528 -283 -963
-512 -1267 -46 -62 -83 -114 -81 -116 9 -8 210 170 262 232 159 190 222 364
356 980 115 530 150 718 150 799 0 41 -3 75 -7 75 -5 0 -29 -7 -55 -14 -74
-23 -75 -12 -7 80 105 141 128 206 209 594 23 107 68 319 100 470 32 151 86
419 120 595 63 336 106 508 146 587 48 95 127 160 215 177 25 5 -1339 9 -3128
10 l-3173 1 0 -2650z"/>
<path d="M6525 11000 c33 -5 211 -40 395 -78 350 -74 570 -117 905 -177 305
-55 583 -114 636 -136 158 -62 233 -166 223 -309 -8 -117 -43 -310 -229 -1285
-32 -164 -43 -253 -35 -285 6 -23 8 -21 23 20 17 45 67 224 107 380 37 147 71
186 161 184 69 -1 189 -62 254 -130 112 -116 140 -236 79 -344 -63 -112 -187
-181 -408 -225 -180 -35 -205 -52 -246 -163 -22 -59 -55 -201 -48 -208 2 -2
51 13 108 32 118 41 169 42 258 4 131 -57 236 -254 217 -409 -28 -235 -261
-344 -414 -193 -26 26 -55 58 -64 72 -16 24 -16 23 -2 -19 31 -91 13 -132 -64
-147 -55 -11 -131 54 -131 114 0 12 -4 22 -8 22 -13 0 -108 -537 -97 -548 2
-2 44 12 93 31 135 55 221 73 273 58 90 -27 158 -135 167 -266 8 -126 -44
-254 -138 -337 -85 -76 -269 -147 -378 -148 -35 0 -49 6 -74 31 l-31 30 5 107
6 107 -14 -60 c-7 -33 -34 -168 -59 -300 -26 -132 -66 -323 -90 -425 -24 -102
-46 -209 -49 -237 -15 -124 41 -13 79 155 40 182 82 271 161 341 127 112 323
112 404 -1 39 -53 47 -114 26 -190 -29 -103 -63 -158 -165 -259 -109 -109
-192 -162 -341 -218 -54 -20 -105 -43 -114 -50 -9 -8 -23 -39 -32 -70 -40
-146 -65 -219 -89 -253 -29 -43 -94 -84 -144 -92 -73 -11 -362 38 -547 93
l-94 28 -11 -41 c-6 -22 -33 -123 -60 -223 -27 -100 -49 -185 -49 -190 0 -5
42 -9 93 -9 128 1 199 -26 282 -108 124 -124 169 -257 205 -606 22 -208 22
-208 90 -343 27 -54 54 -123 61 -153 15 -68 35 -88 106 -109 121 -35 192 -99
261 -233 48 -93 65 -146 92 -277 35 -173 41 -185 154 -305 149 -157 202 -268
226 -473 24 -203 0 -446 -84 -842 -51 -237 -296 -1164 -326 -1232 -20 -46 -43
-55 -60 -24 -17 32 -23 190 -11 286 6 50 47 245 92 435 172 740 204 931 203
1230 -1 178 -4 216 -23 285 -25 94 -71 193 -146 319 -84 142 -131 251 -165
386 -50 200 -87 253 -261 386 -108 81 -159 136 -196 208 -42 83 -96 325 -123
550 -37 314 -134 464 -328 505 -89 19 -120 15 -154 -20 l-31 -30 7 -232 c7
-243 3 -272 -31 -251 -71 44 -102 476 -54 739 12 66 46 192 76 280 48 144 62
192 81 290 3 17 7 140 10 274 2 134 6 246 8 250 7 10 21 334 21 471 0 175 -15
237 -43 175 -26 -58 -133 -83 -234 -55 -105 30 -184 125 -174 209 l6 45 -31
-30 c-85 -80 -104 -127 -210 -517 -79 -293 -157 -534 -199 -618 -24 -46 -38
-61 -75 -79 -40 -19 -55 -21 -123 -15 -110 9 -549 113 -658 156 -95 37 -130
101 -118 211 3 35 36 182 71 328 68 275 94 415 83 444 -5 15 -8 15 -17 4 -19
-23 -80 -209 -112 -340 -32 -129 -101 -542 -101 -601 0 -102 105 -154 470
-231 91 -19 212 -42 270 -50 211 -33 230 -37 241 -58 16 -29 3 -54 -69 -130
-133 -141 -273 -223 -479 -282 -246 -71 -375 -85 -790 -87 -449 -3 -631 -17
-847 -65 -282 -64 -510 -166 -802 -359 -242 -161 -228 -148 -1504 -1290 -888
-794 -1186 -1062 -1367 -1229 l-142 -131 -1 -73 0 -74 227 219 c593 570 716
680 1543 1379 338 286 766 648 951 805 369 314 442 372 603 478 222 146 447
230 701 260 148 17 185 20 555 36 612 26 704 35 895 85 208 55 333 121 450
239 122 125 124 75 14 -327 -92 -337 -212 -665 -320 -870 -74 -142 -126 -224
-250 -393 -43 -58 -110 -157 -148 -220 -86 -140 -99 -159 -111 -159 -20 0 -8
46 71 257 45 120 110 302 145 405 67 197 76 219 173 393 83 150 102 203 102
290 0 87 -21 144 -67 184 -40 36 -82 45 -178 39 -53 -4 -91 -13 -142 -37 -81
-37 -107 -67 -78 -89 15 -11 46 -13 161 -7 100 4 143 3 148 -5 4 -6 4 -14 1
-17 -9 -10 -146 -31 -241 -37 -49 -3 -157 -11 -240 -17 -82 -5 -180 -16 -218
-24 -185 -38 -319 -178 -360 -375 -23 -111 -31 -167 -143 -1010 -31 -234 -41
-490 -25 -630 7 -58 27 -184 46 -280 45 -232 59 -390 52 -575 -15 -373 -92
-711 -311 -1364 -58 -173 -106 -318 -106 -323 0 -4 2185 -8 4855 -8 l4855 0 0
5505 0 5505 -3572 -1 c-1965 -1 -3546 -5 -3513 -9z"/>
<path d="M6269 10956 c-143 -51 -190 -168 -299 -750 -63 -335 -139 -703 -224
-1086 -62 -281 -74 -329 -92 -375 -4 -11 9 4 29 33 29 42 39 71 52 143 8 49
22 106 30 126 8 19 15 59 15 87 0 116 40 287 89 384 12 23 21 60 21 84 0 24 5
70 10 103 6 33 17 110 25 172 8 61 24 140 36 175 11 35 24 97 28 138 5 41 15
104 24 140 26 107 59 261 69 328 12 84 39 142 89 197 50 54 98 85 159 101 44
12 44 13 10 13 -19 0 -51 -6 -71 -13z"/>
<path d="M6540 10950 c8 -5 38 -9 65 -9 l50 1 -40 9 c-22 4 -51 8 -65 8 -20 1
-22 -1 -10 -9z"/>
<path d="M6758 10905 c41 -19 69 -25 115 -24 l62 1 -95 24 c-123 30 -148 30
-82 -1z"/>
<path d="M6987 10861 c28 -11 71 -22 95 -26 24 -4 73 -15 111 -25 37 -11 100
-21 140 -24 57 -5 26 4 -148 43 -239 54 -277 60 -198 32z"/>
<path d="M7428 10773 c7 -3 16 -2 19 1 4 3 -2 6 -13 5 -11 0 -14 -3 -6 -6z"/>
<path d="M7620 10728 c30 -11 102 -26 160 -34 58 -8 141 -23 185 -33 44 -11
105 -23 135 -26 30 -4 100 -17 155 -30 55 -13 120 -26 145 -29 l45 -5 -54 19
c-30 11 -91 26 -135 34 -45 8 -216 40 -381 70 -165 31 -302 56 -305 55 -3 0
20 -9 50 -21z"/>
<path d="M8485 10548 c130 -67 179 -185 136 -326 -15 -50 -21 -94 -20 -154 l1
-83 24 135 c38 224 30 296 -39 368 -29 31 -115 83 -134 82 -4 -1 10 -10 32
-22z"/>
<path d="M5838 10518 c-202 -255 -237 -292 -403 -423 -344 -271 -692 -722
-1335 -1735 -420 -661 -549 -841 -738 -1034 -233 -239 -510 -411 -1252 -780
-646 -321 -1114 -517 -1947 -811 l-163 -58 0 -1899 0 -1899 237 218 c681 626
2257 2036 2448 2190 426 343 755 515 1153 603 166 36 332 49 742 55 415 6 533
14 692 46 300 60 475 145 631 308 89 92 87 102 -18 118 -341 53 -629 119 -759
173 -55 23 -84 42 -104 68 -25 33 -27 42 -26 126 3 228 130 784 210 924 45 77
91 45 81 -57 -5 -46 -4 -53 6 -36 8 13 12 74 12 180 0 152 1 163 27 220 14 33
32 92 39 130 6 39 20 94 31 124 10 30 18 73 18 95 0 23 8 58 18 78 11 20 22
66 25 102 3 36 15 87 26 113 12 29 21 82 24 133 5 74 -5 41 -73 -266 -131
-587 -217 -792 -402 -959 -91 -82 -334 -275 -346 -275 -31 0 -4 50 78 148 292
346 478 772 601 1372 40 197 43 346 9 520 -38 197 -21 308 90 570 129 305 211
585 344 1180 87 389 99 480 66 480 -5 0 -24 -19 -42 -42z"/>
<path d="M8592 9960 c0 -14 2 -19 5 -12 2 6 2 18 0 25 -3 6 -5 1 -5 -13z"/>
<path d="M8570 9858 c0 -8 -11 -36 -24 -62 -13 -26 -27 -68 -30 -94 -4 -26
-15 -74 -26 -107 -12 -41 -20 -104 -23 -195 -6 -153 -11 -170 64 214 27 138
46 252 44 255 -3 2 -5 -2 -5 -11z"/>
<path d="M8659 9275 c-35 -19 -51 -56 -89 -200 -55 -207 -91 -328 -111 -367
-32 -63 -79 -43 -79 34 0 18 11 100 25 183 13 82 22 151 19 154 -2 2 -4 -2 -4
-10 0 -9 -8 -24 -19 -35 -12 -14 -20 -43 -25 -90 -7 -77 -29 -261 -52 -432 -8
-62 -23 -136 -33 -165 -10 -29 -26 -107 -35 -175 -9 -67 -25 -160 -36 -206
-11 -46 -26 -131 -35 -189 -8 -57 -26 -142 -39 -188 -14 -46 -32 -123 -41
-171 -8 -49 -25 -118 -37 -155 -18 -55 -22 -94 -23 -203 -1 -101 -6 -146 -18
-179 -10 -26 -17 -71 -17 -110 l1 -66 29 112 c36 136 54 183 73 183 22 0 25
-27 10 -120 -48 -310 -43 -333 65 -332 109 1 281 79 357 163 73 82 110 203 93
313 -11 71 -56 156 -98 184 -49 33 -116 26 -255 -28 -145 -56 -162 -59 -174
-29 -10 29 -13 9 65 429 74 395 81 425 100 441 22 18 28 -13 19 -104 -21 -212
-13 -269 42 -295 31 -15 37 -15 61 -1 37 20 38 45 7 131 -29 80 -38 177 -24
253 9 48 23 74 34 63 3 -2 8 -25 11 -49 25 -197 66 -298 141 -349 41 -28 124
-38 177 -20 51 17 119 96 141 166 16 51 17 67 6 133 -14 94 -47 166 -102 226
-57 62 -109 87 -189 92 -55 4 -79 0 -160 -29 -52 -19 -102 -33 -112 -31 -36 9
-30 84 18 233 26 82 68 141 116 166 17 9 97 29 177 45 212 42 314 98 377 205
32 54 34 133 7 195 -32 73 -115 154 -196 194 -87 42 -133 50 -168 30z"/>
<path d="M8451 9234 c0 -11 3 -14 6 -6 3 7 2 16 -1 19 -3 4 -6 -2 -5 -13z"/>
<path d="M5583 8618 l-52 -78 32 0 c18 0 38 -5 45 -12 9 -9 12 -1 12 38 0 27
5 66 11 87 6 22 9 40 7 41 -2 1 -26 -33 -55 -76z"/>
<path d="M5620 8450 c-1 -25 -3 -52 -4 -60 -2 -8 -7 -42 -11 -75 -4 -33 -15
-98 -26 -145 -25 -116 -23 -119 16 -20 27 68 35 105 40 185 3 56 2 113 -4 130
-9 29 -9 29 -11 -15z"/>
<path d="M6600 6908 c-41 -8 -65 -20 -96 -48 -23 -21 -50 -41 -60 -44 -10 -3
-37 -37 -58 -74 -22 -37 -45 -74 -52 -82 -6 -8 -23 -58 -37 -110 -14 -52 -33
-120 -41 -150 -9 -30 -15 -68 -15 -85 1 -21 3 -24 6 -10 30 120 98 335 121
382 57 112 145 178 278 209 100 23 172 -1 237 -76 l35 -41 -13 37 c-26 76
-166 119 -305 92z"/>
<path d="M6578 6830 c-116 -91 23 -261 203 -248 52 4 66 9 86 32 77 89 -58
236 -217 236 -32 0 -55 -6 -72 -20z"/>
<path d="M6950 6712 c6 -13 18 -54 25 -90 l13 -67 1 60 c1 51 -3 65 -25 90
-20 24 -23 25 -14 7z"/>
<path d="M7996 6666 c-4 -20 -18 -49 -31 -65 -16 -18 -25 -41 -25 -64 0 -56
-28 -206 -54 -287 -14 -41 -29 -126 -36 -189 -7 -72 -20 -137 -34 -175 -15
-40 -27 -102 -34 -178 -10 -107 -9 -119 9 -154 10 -21 19 -51 19 -66 0 -35
-22 -89 -42 -106 -12 -9 -15 -24 -11 -52 5 -36 2 -43 -33 -79 -70 -69 -204
-91 -314 -50 -30 11 -86 25 -124 30 -76 11 -217 67 -254 102 -38 35 -55 76
-50 122 3 26 0 49 -8 60 -8 10 -14 14 -14 8 0 -57 -47 -263 -85 -368 -58 -163
-80 -258 -96 -410 -19 -191 1 -515 33 -515 11 0 10 30 -3 185 -15 167 -8 218
37 263 l34 34 83 -4 c164 -10 268 -78 337 -222 40 -84 63 -168 75 -271 12
-107 55 -345 81 -449 27 -108 61 -181 102 -218 l25 -23 -7 40 c-4 22 -31 90
-61 151 -58 118 -80 190 -90 294 -27 296 -46 390 -101 506 -82 173 -207 248
-404 241 -71 -2 -75 -1 -78 20 -3 17 83 358 124 496 7 22 23 20 134 -17 107
-36 416 -96 491 -96 70 0 116 20 156 69 20 24 65 150 94 261 10 41 66 110 89
110 5 0 48 14 96 32 158 57 347 207 416 330 82 146 76 254 -15 322 -42 31
-184 30 -245 -2 -104 -55 -158 -142 -206 -334 -19 -74 -48 -169 -66 -211 -27
-66 -35 -77 -56 -77 -14 0 -27 7 -31 17 -12 31 16 209 66 413 49 200 126 598
118 607 -3 2 -8 -12 -11 -31z"/>
<path d="M5251 6456 c-1 -10 -26 -120 -57 -245 -64 -254 -78 -373 -50 -416 9
-13 34 -34 56 -45 105 -54 565 -162 697 -164 97 -1 116 11 156 102 44 101 42
110 -9 43 -27 -35 -65 -73 -84 -83 -44 -23 -165 -24 -236 -3 -27 8 -65 15 -86
15 -63 0 -250 50 -312 83 -70 37 -123 86 -142 133 -23 56 -18 153 11 208 16
30 25 63 25 92 0 25 9 97 21 160 11 63 18 121 15 127 -2 7 -5 4 -5 -7z"/>
<path d="M6992 6445 c0 -16 2 -22 5 -12 2 9 2 23 0 30 -3 6 -5 -1 -5 -18z"/>
<path d="M7000 6395 c-1 -11 -3 -31 -5 -45 -1 -14 -6 -81 -10 -149 -4 -68 -9
-136 -11 -150 -8 -61 -16 -435 -9 -429 4 4 9 86 11 183 2 107 10 205 20 253
17 84 25 276 13 326 -5 21 -8 24 -9 11z"/>
<path d="M6231 6264 c0 -11 3 -14 6 -6 3 7 2 16 -1 19 -3 4 -6 -2 -5 -13z"/>
<path d="M6146 5997 c-32 -91 -45 -150 -31 -136 7 8 76 232 72 236 -2 2 -21
-43 -41 -100z"/>
<path d="M5935 5159 c-94 -96 -238 -178 -400 -224 -111 -32 -283 -62 -395 -70
-47 -3 -114 -7 -150 -10 -36 -3 -128 -7 -205 -10 -77 -3 -178 -8 -225 -10 -47
-3 -148 -7 -225 -10 -360 -15 -585 -64 -820 -182 -213 -106 -385 -238 -1035
-793 -234 -200 -535 -456 -670 -569 -645 -541 -961 -823 -1522 -1359 l-288
-274 0 -824 0 -824 1930 2 1930 3 106 315 c199 595 273 890 309 1244 19 185 3
450 -40 681 -59 316 -70 453 -55 670 12 165 144 1136 175 1287 36 173 148 310
304 369 72 27 196 47 339 56 61 3 112 8 112 10 0 2 -7 14 -16 28 -20 31 -8 54
52 96 97 66 238 90 346 57 94 -28 143 -117 143 -258 -1 -86 -19 -130 -145
-360 -44 -80 -85 -175 -116 -265 -26 -77 -78 -221 -116 -320 -37 -98 -67 -182
-66 -187 4 -10 272 376 335 482 113 190 191 371 276 640 91 287 182 621 175
642 -2 5 -21 -10 -43 -33z"/>
<path d="M7700 3431 c0 -5 18 -21 40 -36 59 -41 135 -125 165 -184 14 -29 39
-103 55 -164 37 -148 59 -202 126 -322 103 -184 143 -260 163 -315 109 -295
70 -714 -150 -1605 -60 -244 -90 -417 -96 -559 -10 -215 -5 -204 161 429 129
489 167 648 205 846 42 219 51 314 51 511 1 144 -3 186 -20 252 -37 140 -98
244 -213 361 -86 89 -112 139 -142 278 -63 296 -156 450 -302 501 -24 8 -43
11 -43 7z"/>
</g>
</svg>
