<?xml version="1.0" standalone="no"?>
<!DOCTYPE svg PUBLIC "-//W3C//DTD SVG 20010904//EN"
 "http://www.w3.org/TR/2001/REC-SVG-20010904/DTD/svg10.dtd">
<svg version="1.0" xmlns="http://www.w3.org/2000/svg"
 width="1361.000000pt" height="1101.000000pt" viewBox="0 0 1361.000000 1101.000000"
 preserveAspectRatio="xMidYMid meet">

<g transform="translate(0.000000,1101.000000) scale(0.100000,-0.100000)"
fill="#000000" stroke="none">
<path d="M6072 10958 c-220 -996 -1092 -5096 -1092 -5132 l0 -51 495 -128
c272 -70 500 -125 505 -122 6 3 10 14 10 24 0 24 23 43 42 36 11 -4 18 2 22
19 3 13 19 38 36 54 16 17 30 37 30 46 0 8 6 21 13 28 7 7 19 46 25 87 7 41
21 95 32 120 10 25 21 71 23 101 3 30 16 78 30 105 13 28 28 75 31 105 11 84
45 211 68 248 11 18 26 60 33 95 26 123 85 207 156 222 15 3 35 15 45 26 15
16 31 19 115 19 96 0 98 0 123 -30 25 -30 56 -114 56 -151 0 -10 8 -23 19 -28
10 -6 27 -27 37 -48 18 -35 19 -62 17 -352 -2 -173 -7 -351 -13 -395 -5 -45
-11 -153 -14 -241 -4 -149 -10 -193 -47 -314 -3 -10 104 -41 429 -125 417
-108 433 -112 437 -92 3 12 232 1192 510 2624 494 2548 505 2605 505 2723 0
113 -1 120 -19 114 -10 -3 -480 100 -1045 230 l-1026 235 -288 0 -289 0 -11
-52z"/>
</g>
</svg>
